# xmcd CD database file
#
# Track frame offsets:
#	182
#	15292
#	34832
#	49827
#	62522
#	85115
#	104597
#	123910
#	136705
#	153275
#	172845
#	192682
#	209470
#
# Disc length: 2953 seconds
#
# Revision: 0
# Processed by: cddbd v1.5.1PL0 Copyright (c) Steve Scherf et al.
# Submitted via: CDex 1.50beta10
#
DISCID=a40b870d
DTITLE=Houston Stackhouse - Cryin' Won't Help You
DYEAR=1994
DGENRE=Blues
TTITLE0=Kind Hearted Woman Blues
TTITLE1=Bricks In My Pillow
TTITLE2=Bye Bye Blues
TTITLE3=My Babe
TTITLE4=Sweet Black Angel Blues
TTITLE5=Pony Blues
TTITLE6=Cry On! Cry On!
TTITLE7=Sweet Home Chicago
TTITLE8=Cryin' Won't Help You
TTITLE9=I Got Something
TTITLE10=Maggie Campbell Blues
TTITLE11=I'm Getting Tired
TTITLE12=Big Road Blues
EXTD=YEAR: 1994
EXTT0=
EXTT1=
EXTT2=
EXTT3=
EXTT4=
EXTT5=
EXTT6=
EXTT7=
EXTT8=
EXTT9=
EXTT10=
EXTT11=
EXTT12=
PLAYORDER=
